<?xml version="1.0" standalone="no"?>
<!DOCTYPE svg PUBLIC "-//W3C//DTD SVG 20010904//EN"
 "http://www.w3.org/TR/2001/REC-SVG-20010904/DTD/svg10.dtd">
<svg version="1.0" xmlns="http://www.w3.org/2000/svg"
 width="124.000000pt" height="52.000000pt" viewBox="0 0 124.000000 52.000000"
 preserveAspectRatio="xMidYMid meet">

<g transform="translate(0.000000,52.000000) scale(0.100000,-0.100000)"
fill="#000000" stroke="none">
<path d="M100 422 c0 -5 19 -27 43 -49 31 -28 56 -42 86 -47 24 -4 46 -5 48
-2 7 6 -125 91 -154 100 -13 4 -23 3 -23 -2z"/>
<path d="M80 382 c0 -12 8 -23 21 -27 31 -10 32 -1 4 25 -25 23 -25 23 -25 2z"/>
<path d="M90 324 c0 -8 11 -37 25 -65 27 -53 30 -53 83 -12 l23 19 -33 30
c-38 36 -98 53 -98 28z"/>
<path d="M619 301 c-20 -16 -22 -23 -14 -47 6 -17 25 -36 50 -48 48 -25 53
-51 10 -51 -20 0 -33 7 -41 22 -11 23 -24 21 -24 -3 0 -40 75 -58 118 -28 43
30 21 81 -46 105 -44 15 -45 49 -2 49 23 0 33 -6 39 -22 8 -22 9 -22 17 -4 16
42 -64 62 -107 27z"/>
<path d="M770 225 c0 -95 0 -95 25 -95 25 0 25 0 25 95 0 95 0 95 -25 95 -25
0 -25 0 -25 -95z"/>
<path d="M879 291 c-35 -36 -40 -95 -10 -132 15 -19 29 -24 80 -25 l61 -2 0
49 0 49 -40 0 c-22 0 -40 -4 -40 -10 0 -5 7 -10 15 -10 10 0 15 -10 15 -31 0
-26 -3 -30 -22 -27 -20 3 -23 10 -26 61 -2 35 2 64 9 73 17 21 47 17 54 -7 5
-15 10 -18 18 -10 16 16 -21 51 -55 51 -19 0 -40 -10 -59 -29z"/>
<path d="M222 294 c9 -9 21 -13 27 -9 16 10 3 25 -22 25 -20 0 -20 -1 -5 -16z"/>
<path d="M270 275 c-10 -13 -10 -19 5 -35 10 -11 24 -20 30 -20 20 0 37 28 30
50 -8 24 -47 27 -65 5z"/>
<path d="M197 223 c-27 -19 -34 -29 -25 -35 18 -11 80 -10 98 2 13 8 11 13
-10 35 l-25 25 -38 -27z"/>
<path d="M90 220 c0 -11 7 -20 15 -20 13 0 14 4 5 20 -6 11 -13 20 -15 20 -3
0 -5 -9 -5 -20z"/>
<path d="M96 147 c-20 -16 -27 -29 -23 -40 8 -20 46 -22 71 -4 15 11 16 17 5
40 -15 33 -17 33 -53 4z"/>
<path d="M170 162 c0 -4 4 -13 9 -20 6 -10 10 -10 20 1 9 12 7 16 -9 20 -11 3
-20 2 -20 -1z"/>
</g>
</svg>
